<svg xmlns="http://www.w3.org/2000/svg" width="960" height="720" viewBox="0 0 960 720"><rect width="960" height="720" fill="#F1F5FA"/><rect x="146" y="109" width="670" height="500" rx="28" fill="#DCE7F2"/><rect x="208" y="161" width="248" height="344" rx="22" fill="#F8FBFF"/><rect x="504" y="170" width="252" height="160" rx="22" fill="#0E2749"/><rect x="530" y="194" width="62" height="112" rx="10" fill="#D0E0F5" fill-opacity=".4"/><rect x="607" y="194" width="62" height="112" rx="10" fill="#D0E0F5" fill-opacity=".2"/><rect x="685" y="194" width="45" height="112" rx="10" fill="#D0E0F5" fill-opacity=".18"/><rect x="504" y="363" width="252" height="142" rx="22" fill="#173F73"/><rect x="530" y="392" width="160" height="18" rx="9" fill="#D7E3F4" fill-opacity=".3"/><rect x="530" y="424" width="120" height="18" rx="9" fill="#D7E3F4" fill-opacity=".24"/><rect x="246" y="208" width="172" height="18" rx="9" fill="#D5E1F2"/><rect x="246" y="240" width="128" height="18" rx="9" fill="#E6EFF8"/><rect x="246" y="420" width="116" height="56" rx="18" fill="#0D2546"/></svg>