<svg xmlns="http://www.w3.org/2000/svg" width="960" height="720" viewBox="0 0 960 720"><rect width="960" height="720" fill="#EAF1F8"/><rect y="498" width="960" height="222" fill="#D4E4D2"/><circle cx="777" cy="125" r="66" fill="#F9FBFF"/><path d="M196 482L410 312L681 483V560H196V482Z" fill="#173F73"/><path d="M263 392L414 292L617 406L480 487L263 392Z" fill="#102845"/><g opacity=".95"><rect x="293" y="378" width="38" height="20" rx="2" fill="#BED2F0"/><rect x="336" y="355" width="38" height="20" rx="2" fill="#BED2F0"/><rect x="379" y="332" width="38" height="20" rx="2" fill="#BED2F0"/><rect x="422" y="355" width="38" height="20" rx="2" fill="#BED2F0"/><rect x="465" y="378" width="38" height="20" rx="2" fill="#BED2F0"/><rect x="508" y="401" width="38" height="20" rx="2" fill="#BED2F0"/></g><rect x="236" y="463" width="113" height="97" fill="#F3F8FD"/><rect x="502" y="463" width="112" height="97" fill="#EDF4FB"/></svg>